# xmcd
#
# Track frame offsets:
#	150
#	13037
#	27934
#	41737
#	58186
#	73317
#	87539
#	101045
#	114529
#	130836
#	146930
#	157176
#
# Disc length: 2271 seconds
#
# Revision: 0
# Processed by: cddbd v1.5.2PL0 Copyright (c) Steve Scherf et al.
# Submitted via: audiograbber 1.83.01
#
DISCID=b808dd0c
DTITLE=Denny Wolf - Instrumentals
DYEAR=1900
DGENRE=
TTITLE0=Keep on the Sunny Side
TTITLE1=Precious Memories
TTITLE2=Nearer My God to Thee
TTITLE3=I Overlooked an Orchid
TTITLE4=Family Bible
TTITLE5=He Leadeth Me
TTITLE6=Consider the Lilies
TTITLE7=I Want to Know More About My Lord
TTITLE8=Where the Roses Never Fade
TTITLE9=I Don't Know About Tomorrow
TTITLE10=Abide With Me
TTITLE11=I'll Fly Away
EXTD=
EXTT0=
EXTT1=
EXTT2=
EXTT3=
EXTT4=
EXTT5=
EXTT6=
EXTT7=
EXTT8=
EXTT9=
EXTT10=
EXTT11=
PLAYORDER=
